<svg width="32" height="32" viewBox="0 0 32 32" fill="none" xmlns="http://www.w3.org/2000/svg">
<path fill-rule="evenodd" clip-rule="evenodd" d="M3.87595 12.0077L11.344 11.073L15.1056 3.55279C15.4741 2.81574 16.5259 2.81574 16.8944 3.55279L20.655 11.073L28.124 12.0077C28.9104 12.106 29.2615 13.0248 28.7848 13.6203L28.7071 13.7071L23.095 19.319L24.9762 27.7831C25.1606 28.6129 24.299 29.262 23.5649 28.9009L23.47 28.848L16 24.178L8.52998 28.848C7.80915 29.2985 6.90991 28.7027 7.00558 27.8902L7.02379 27.7831L8.90398 19.319L3.29287 13.7071C2.73248 13.1467 3.01941 12.206 3.7613 12.0285L3.87595 12.0077ZM19.1056 12.4472L16 6.236L12.8944 12.4472C12.7449 12.7463 12.4558 12.9508 12.124 12.9923L6.15298 13.738L10.7071 18.2929C10.9186 18.5044 11.0228 18.7977 10.9958 19.0913L10.9762 19.2169L9.49298 25.887L15.47 22.152C15.7582 21.9719 16.1154 21.9518 16.4189 22.092L16.53 22.152L22.506 25.887L21.0238 19.2169C20.9589 18.9249 21.0285 18.6216 21.2089 18.3883L21.2929 18.2929L25.846 13.738L19.8759 12.9923C19.5856 12.956 19.328 12.7949 19.168 12.5548L19.1056 12.4472Z" fill="url(#paint0_linear_219_3921)"/>
<defs>
<linearGradient id="paint0_linear_219_3921" x1="-10.0024" y1="16.0015" x2="16.0006" y2="42.0039" gradientUnits="userSpaceOnUse">
<stop stop-color="#A300FF"/>
<stop offset="0.511423" stop-color="#2C00FF"/>
<stop offset="1" stop-color="#00AFFF"/>
</linearGradient>
</defs>
</svg>
